<svg width="168" height="40" viewBox="0 0 168 40" fill="none" xmlns="http://www.w3.org/2000/svg">
<g clip-path="url(#clip0)">
<path d="M53.114 27H50.826C50.7233 27 50.628 26.9633 50.54 26.89C50.4667 26.802 50.43 26.6993 50.43 26.582V12.458C50.43 12.3407 50.4667 12.2453 50.54 12.172C50.628 12.084 50.7233 12.04 50.826 12.04H57.756C59.384 12.04 60.6747 12.4873 61.628 13.382C62.596 14.2767 63.08 15.4793 63.08 16.99C63.08 18.4567 62.5593 19.6593 61.518 20.598C60.4767 21.5367 59.1713 22.006 57.602 22.006H53.928C53.796 22.006 53.6933 22.0427 53.62 22.116C53.5613 22.1893 53.532 22.292 53.532 22.424V26.582C53.532 26.6847 53.488 26.78 53.4 26.868C53.3267 26.956 53.2313 27 53.114 27ZM53.906 19.454H57.602C58.2767 19.454 58.834 19.212 59.274 18.728C59.7287 18.244 59.956 17.672 59.956 17.012C59.956 16.3373 59.736 15.78 59.296 15.34C58.8707 14.8853 58.306 14.658 57.602 14.658H53.906C53.774 14.658 53.6787 14.6947 53.62 14.768C53.5613 14.8267 53.532 14.922 53.532 15.054V19.058C53.532 19.19 53.5613 19.2927 53.62 19.366C53.6787 19.4247 53.774 19.454 53.906 19.454ZM67.3934 27H65.2154C65.1127 27 65.0174 26.9633 64.9294 26.89C64.856 26.802 64.8194 26.6993 64.8194 26.582V16.374C64.8194 16.2567 64.856 16.1613 64.9294 16.088C65.0174 16 65.1127 15.956 65.2154 15.956H67.3054C67.4227 15.956 67.518 16 67.5914 16.088C67.6794 16.1613 67.7234 16.2567 67.7234 16.374V16.814C67.7234 16.9607 67.7747 17.0487 67.8774 17.078C67.98 17.0927 68.1047 17.034 68.2514 16.902C68.6914 16.506 69.146 16.2127 69.6154 16.022C70.0847 15.8313 70.5834 15.736 71.1114 15.736C71.2434 15.736 71.346 15.7727 71.4194 15.846C71.5074 15.9193 71.5514 16.022 71.5514 16.154V18.288C71.5514 18.4053 71.5074 18.508 71.4194 18.596C71.346 18.6693 71.258 18.706 71.1554 18.706C69.9674 18.706 69.1094 18.948 68.5814 19.432C68.068 19.916 67.8114 20.6933 67.8114 21.764V26.582C67.8114 26.6847 67.7674 26.78 67.6794 26.868C67.606 26.956 67.5107 27 67.3934 27ZM75.5574 27H73.3794C73.2768 27 73.1814 26.9633 73.0934 26.89C73.0201 26.802 72.9834 26.6993 72.9834 26.582V16.374C72.9834 16.2567 73.0201 16.1613 73.0934 16.088C73.1814 16 73.2768 15.956 73.3794 15.956H75.5574C75.6748 15.956 75.7701 16 75.8434 16.088C75.9314 16.1613 75.9754 16.2567 75.9754 16.374V26.582C75.9754 26.6847 75.9314 26.78 75.8434 26.868C75.7701 26.956 75.6748 27 75.5574 27ZM76.1734 13.074C76.1734 13.5287 76.0048 13.9247 75.6674 14.262C75.3448 14.5847 74.9561 14.746 74.5014 14.746C74.0468 14.746 73.6508 14.5847 73.3134 14.262C72.9908 13.9247 72.8294 13.5287 72.8294 13.074C72.8294 12.6193 72.9908 12.2307 73.3134 11.908C73.6508 11.5707 74.0468 11.402 74.5014 11.402C74.9561 11.402 75.3448 11.5707 75.6674 11.908C76.0048 12.2307 76.1734 12.6193 76.1734 13.074ZM83.7655 27H81.6975C81.6095 27 81.5288 26.978 81.4555 26.934C81.3968 26.8753 81.3455 26.7873 81.3015 26.67L77.2095 16.55C77.1508 16.3887 77.1582 16.2493 77.2315 16.132C77.3048 16.0147 77.4148 15.956 77.5615 15.956H79.7395C79.8275 15.956 79.9082 15.9927 79.9815 16.066C80.0548 16.1247 80.1208 16.22 80.1795 16.352L82.5995 22.512C82.6582 22.6587 82.7388 22.732 82.8415 22.732C82.9442 22.7173 83.0248 22.644 83.0835 22.512L85.6135 16.308C85.6722 16.176 85.7308 16.088 85.7895 16.044C85.8628 15.9853 85.9508 15.956 86.0535 15.956H88.1875C88.3342 15.956 88.4368 16.0147 88.4955 16.132C88.5688 16.2347 88.5762 16.352 88.5175 16.484L84.1615 26.648C84.1175 26.78 84.0588 26.8753 83.9855 26.934C83.9268 26.978 83.8535 27 83.7655 27ZM97.7606 25.812C97.1886 26.34 96.6239 26.7213 96.0666 26.956C95.5093 27.176 94.8933 27.286 94.2186 27.286C92.7079 27.286 91.4246 26.7287 90.3686 25.614C89.3273 24.4847 88.8066 23.106 88.8066 21.478C88.8066 19.85 89.3346 18.4787 90.3906 17.364C91.4613 16.2347 92.7519 15.67 94.2626 15.67C94.7906 15.67 95.2819 15.758 95.7366 15.934C96.2059 16.11 96.6899 16.396 97.1886 16.792C97.2913 16.88 97.3866 16.9167 97.4746 16.902C97.5626 16.8873 97.6066 16.814 97.6066 16.682V16.352C97.6066 16.2347 97.6433 16.1393 97.7166 16.066C97.8046 15.9927 97.8999 15.956 98.0026 15.956H100.071C100.188 15.956 100.283 16 100.357 16.088C100.445 16.1613 100.489 16.2567 100.489 16.374V23.656C100.489 23.92 100.533 24.118 100.621 24.25C100.723 24.382 100.87 24.4553 101.061 24.47C101.163 24.4847 101.251 24.5287 101.325 24.602C101.398 24.6607 101.435 24.734 101.435 24.822V26.736C101.435 26.8387 101.398 26.9267 101.325 27C101.251 27.0733 101.163 27.11 101.061 27.11C100.357 27.11 99.7773 27.0073 99.3226 26.802C98.8679 26.5967 98.5159 26.2813 98.2666 25.856C98.1933 25.7387 98.1126 25.68 98.0246 25.68C97.9513 25.6653 97.8633 25.7093 97.7606 25.812ZM91.8206 21.478C91.8206 22.3287 92.0993 23.0547 92.6566 23.656C93.2286 24.2573 93.9179 24.558 94.7246 24.558C95.5313 24.558 96.2133 24.2647 96.7706 23.678C97.3279 23.0767 97.6066 22.3433 97.6066 21.478C97.6066 20.6127 97.3279 19.8867 96.7706 19.3C96.2133 18.6987 95.5313 18.398 94.7246 18.398C93.9179 18.398 93.2286 18.6987 92.6566 19.3C92.0993 19.9013 91.8206 20.6273 91.8206 21.478ZM108.604 27.11H108.494C106.866 27.11 105.656 26.7433 104.864 26.01C104.072 25.262 103.676 24.1327 103.676 22.622V18.904C103.676 18.7867 103.639 18.6913 103.566 18.618C103.493 18.5447 103.397 18.508 103.28 18.508H102.51C102.393 18.508 102.29 18.4713 102.202 18.398C102.129 18.31 102.092 18.2147 102.092 18.112V16.374C102.092 16.2567 102.136 16.1613 102.224 16.088C102.312 16 102.407 15.956 102.51 15.956H103.28C103.397 15.956 103.493 15.9193 103.566 15.846C103.639 15.758 103.676 15.6627 103.676 15.56V13.668C103.676 13.5507 103.713 13.4553 103.786 13.382C103.874 13.294 103.969 13.25 104.072 13.25H106.25C106.367 13.25 106.463 13.294 106.536 13.382C106.624 13.4553 106.668 13.5507 106.668 13.668V15.56C106.668 15.6627 106.705 15.758 106.778 15.846C106.866 15.9193 106.969 15.956 107.086 15.956H108.516C108.633 15.956 108.729 16 108.802 16.088C108.89 16.1613 108.934 16.2567 108.934 16.374V18.112C108.934 18.2147 108.89 18.31 108.802 18.398C108.729 18.4713 108.633 18.508 108.516 18.508H107.086C106.983 18.508 106.888 18.552 106.8 18.64C106.712 18.7133 106.668 18.8087 106.668 18.926V22.6C106.668 23.216 106.829 23.6853 107.152 24.008C107.489 24.3307 107.973 24.492 108.604 24.492C108.707 24.492 108.795 24.5287 108.868 24.602C108.941 24.6607 108.978 24.7413 108.978 24.844V26.714C108.978 26.8313 108.941 26.9267 108.868 27C108.795 27.0733 108.707 27.11 108.604 27.11ZM120.732 24.052C120.366 25.02 119.691 25.8047 118.708 26.406C117.74 26.9927 116.655 27.286 115.452 27.286C113.795 27.286 112.424 26.7433 111.338 25.658C110.268 24.5727 109.732 23.194 109.732 21.522C109.732 19.85 110.282 18.4567 111.382 17.342C112.482 16.2273 113.854 15.67 115.496 15.67C117.124 15.67 118.474 16.2347 119.544 17.364C120.63 18.4787 121.172 19.8793 121.172 21.566C121.172 21.8153 121.128 21.9987 121.04 22.116C120.967 22.2333 120.842 22.292 120.666 22.292H113.098C113.01 22.292 112.944 22.3213 112.9 22.38C112.856 22.424 112.842 22.49 112.856 22.578C112.93 23.2087 113.216 23.7293 113.714 24.14C114.228 24.5507 114.836 24.756 115.54 24.756C115.951 24.756 116.332 24.6753 116.684 24.514C117.051 24.3527 117.366 24.118 117.63 23.81C117.748 23.678 117.858 23.59 117.96 23.546C118.078 23.4873 118.202 23.458 118.334 23.458H120.358C120.534 23.458 120.652 23.5167 120.71 23.634C120.784 23.7367 120.791 23.876 120.732 24.052ZM112.944 20.202C112.915 20.3047 112.915 20.3853 112.944 20.444C112.974 20.488 113.032 20.51 113.12 20.51H117.762C117.836 20.51 117.887 20.4953 117.916 20.466C117.96 20.422 117.975 20.356 117.96 20.268C117.843 19.6667 117.55 19.1753 117.08 18.794C116.611 18.398 116.068 18.2 115.452 18.2C114.866 18.2 114.338 18.3907 113.868 18.772C113.399 19.1387 113.091 19.6153 112.944 20.202ZM130.146 27H127.902C127.799 27 127.711 26.9707 127.638 26.912C127.579 26.8533 127.528 26.758 127.484 26.626L122.072 12.568C122.028 12.436 122.035 12.3187 122.094 12.216C122.167 12.0987 122.27 12.04 122.402 12.04H124.8C124.888 12.04 124.969 12.0693 125.042 12.128C125.13 12.1867 125.196 12.2747 125.24 12.392L128.892 22.314C128.951 22.4607 129.024 22.534 129.112 22.534C129.215 22.534 129.295 22.4607 129.354 22.314L133.094 12.392C133.138 12.2747 133.197 12.1867 133.27 12.128C133.343 12.0693 133.424 12.04 133.512 12.04H135.822C135.969 12.04 136.071 12.0987 136.13 12.216C136.203 12.3187 136.211 12.4507 136.152 12.612L130.586 26.648C130.542 26.7653 130.483 26.8533 130.41 26.912C130.337 26.9707 130.249 27 130.146 27ZM148.874 21.478C148.874 23.1207 148.309 24.4993 147.18 25.614C146.065 26.7287 144.665 27.286 142.978 27.286C141.306 27.286 139.905 26.7287 138.776 25.614C137.647 24.4993 137.082 23.1207 137.082 21.478C137.082 19.8353 137.639 18.4567 138.754 17.342C139.883 16.2273 141.291 15.67 142.978 15.67C144.665 15.67 146.065 16.2273 147.18 17.342C148.309 18.442 148.874 19.8207 148.874 21.478ZM140.074 21.478C140.074 22.3287 140.36 23.0547 140.932 23.656C141.504 24.2573 142.186 24.558 142.978 24.558C143.785 24.558 144.467 24.2573 145.024 23.656C145.596 23.0547 145.882 22.3287 145.882 21.478C145.882 20.6273 145.596 19.9013 145.024 19.3C144.467 18.6987 143.785 18.398 142.978 18.398C142.186 18.398 141.504 18.6987 140.932 19.3C140.36 19.9013 140.074 20.6273 140.074 21.478ZM153.438 27H151.26C151.158 27 151.062 26.9633 150.974 26.89C150.901 26.802 150.864 26.6993 150.864 26.582V16.374C150.864 16.2567 150.901 16.1613 150.974 16.088C151.062 16 151.158 15.956 151.26 15.956H153.438C153.556 15.956 153.651 16 153.724 16.088C153.812 16.1613 153.856 16.2567 153.856 16.374V26.582C153.856 26.6847 153.812 26.78 153.724 26.868C153.651 26.956 153.556 27 153.438 27ZM154.054 13.074C154.054 13.5287 153.886 13.9247 153.548 14.262C153.226 14.5847 152.837 14.746 152.382 14.746C151.928 14.746 151.532 14.5847 151.194 14.262C150.872 13.9247 150.71 13.5287 150.71 13.074C150.71 12.6193 150.872 12.2307 151.194 11.908C151.532 11.5707 151.928 11.402 152.382 11.402C152.837 11.402 153.226 11.5707 153.548 11.908C153.886 12.2307 154.054 12.6193 154.054 13.074ZM164.77 25.812C164.198 26.34 163.634 26.7213 163.076 26.956C162.519 27.176 161.903 27.286 161.228 27.286C159.718 27.286 158.434 26.7287 157.378 25.614C156.337 24.4847 155.816 23.106 155.816 21.478C155.816 19.85 156.344 18.4787 157.4 17.364C158.471 16.2347 159.762 15.67 161.272 15.67C161.786 15.67 162.27 15.7507 162.724 15.912C163.194 16.0733 163.634 16.3227 164.044 16.66C164.147 16.748 164.25 16.7773 164.352 16.748C164.455 16.704 164.506 16.6087 164.506 16.462V12.458C164.506 12.3407 164.543 12.2453 164.616 12.172C164.704 12.084 164.8 12.04 164.902 12.04H167.08C167.198 12.04 167.293 12.084 167.366 12.172C167.454 12.2453 167.498 12.3407 167.498 12.458V23.656C167.498 23.92 167.542 24.118 167.63 24.25C167.733 24.382 167.88 24.4553 168.07 24.47C168.173 24.4847 168.261 24.5287 168.334 24.602C168.408 24.6607 168.444 24.734 168.444 24.822V26.736C168.444 26.8387 168.408 26.9267 168.334 27C168.261 27.0733 168.173 27.11 168.07 27.11C167.366 27.11 166.787 27.0073 166.332 26.802C165.878 26.5967 165.526 26.2813 165.276 25.856C165.203 25.7387 165.122 25.68 165.034 25.68C164.961 25.6653 164.873 25.7093 164.77 25.812ZM158.83 21.478C158.83 22.3287 159.109 23.0547 159.666 23.656C160.238 24.2573 160.928 24.558 161.734 24.558C162.541 24.558 163.223 24.2647 163.78 23.678C164.338 23.0767 164.616 22.3433 164.616 21.478C164.616 20.6127 164.338 19.8867 163.78 19.3C163.223 18.6987 162.541 18.398 161.734 18.398C160.928 18.398 160.238 18.6987 159.666 19.3C159.109 19.9013 158.83 20.6273 158.83 21.478Z" fill="#5A78FF"/>
<rect width="40" height="40" rx="7" fill="#5A78FF"/>
<path d="M26.4893 8.57637L7.71123 14.8357C6.97128 15.0839 6.32587 15.5542 5.863 16.1826C5.40013 16.811 5.14232 17.5668 5.12472 18.347C5.10712 19.1273 5.33059 19.894 5.76465 20.5426C6.19872 21.1912 6.82227 21.6901 7.55027 21.9714L14.4982 24.6272C14.663 24.6946 14.8127 24.7941 14.9386 24.92C15.0645 25.0459 15.164 25.1956 15.2314 25.3604L17.8872 32.3083C18.1138 32.8985 18.4843 33.4227 18.965 33.8333C19.4457 34.2438 20.0214 34.5278 20.6398 34.6593C21.2581 34.7908 21.8995 34.7656 22.5057 34.5862C23.1119 34.4067 23.6636 34.0786 24.1108 33.6317C24.5253 33.2089 24.84 32.6986 25.0318 32.1384L31.2912 13.3603C31.5118 12.6929 31.5427 11.9772 31.3804 11.2933C31.218 10.6093 30.8688 9.9839 30.3718 9.48682C29.8747 8.98975 29.2493 8.64056 28.5653 8.47821C27.8813 8.31587 27.1657 8.34675 26.4983 8.56742L26.4893 8.57637ZM28.8858 12.5645L22.6264 31.3426C22.541 31.5859 22.3832 31.7973 22.1742 31.9484C21.9652 32.0995 21.715 32.183 21.4571 32.1879C21.1993 32.1928 20.9461 32.1187 20.7316 31.9756C20.517 31.8325 20.3514 31.6272 20.2568 31.3873L17.5921 24.4483C17.5556 24.3565 17.5138 24.267 17.4669 24.1801L23.6279 18.0191C23.8651 17.7819 23.9983 17.4603 23.9983 17.1249C23.9983 16.7895 23.8651 16.4678 23.6279 16.2307C23.3908 15.9935 23.0691 15.8603 22.7337 15.8603C22.3983 15.8603 22.0767 15.9935 21.8395 16.2307L15.6785 22.3917C15.5916 22.3448 15.502 22.303 15.4103 22.2665L8.47129 19.6018C8.23137 19.5072 8.0261 19.3416 7.883 19.127C7.7399 18.9125 7.66582 18.6593 7.67068 18.4015C7.67555 18.1436 7.75913 17.8934 7.91022 17.6844C8.06131 17.4754 8.27268 17.3176 8.516 17.2322L27.2941 10.9728C27.5156 10.9014 27.7525 10.8925 27.9788 10.947C28.2051 11.0016 28.4119 11.1176 28.5764 11.2822C28.741 11.4467 28.857 11.6535 28.9115 11.8798C28.9661 12.106 28.9572 12.343 28.8858 12.5645Z" fill="white"/>
</g>
<defs>
<clipPath id="clip0">
<rect width="168" height="40" fill="white"/>
</clipPath>
</defs>
</svg>
