<svg width="168" height="40" viewBox="0 0 168 40" fill="none" xmlns="http://www.w3.org/2000/svg">
<rect width="40" height="40" rx="10" fill="#0052FF"/>
<path d="M15.8057 13.5L5.14996 24.1558L7.51792 26.5237L15.8057 18.2358L24.0935 26.5237L26.4614 24.1558L15.8057 13.5Z" fill="white"/>
<path d="M24.1941 13.5001L20.8902 16.8041L23.2655 19.1647L24.1941 18.2359L32.482 26.5238L34.85 24.1558L24.1941 13.5001Z" fill="white"/>
<path d="M50.1709 12.499V28H54.1133V23.4561H56.6484C57.7979 23.4561 58.8076 23.2305 59.6885 22.7793C60.5586 22.3281 61.2354 21.6943 61.7295 20.8779C62.2236 20.0615 62.4707 19.0947 62.4707 17.9883C62.4707 16.8818 62.2344 15.915 61.7617 15.0986C61.2891 14.2822 60.6445 13.6377 59.8066 13.1865C58.9688 12.7354 57.9912 12.499 56.8848 12.499H50.1709ZM54.1133 15.5176H55.8428C56.6699 15.5176 57.3145 15.7324 57.7871 16.1621C58.249 16.5918 58.4854 17.2041 58.4854 17.999C58.4854 18.8154 58.249 19.4277 57.7764 19.8574C57.3037 20.2871 56.6592 20.4912 55.8213 20.4912H54.1133V15.5176ZM63.9639 28H67.7773V21.8447C67.7773 21.0283 67.9814 20.4053 68.4111 19.9648C68.8301 19.5352 69.4424 19.3096 70.248 19.3096C70.7207 19.3096 71.1182 19.3848 71.4619 19.5244V16.2803C71.333 16.2373 71.1826 16.1943 71.0215 16.1729C70.8604 16.1514 70.6885 16.1299 70.4951 16.1299C69.0986 16.1299 68.1748 16.9248 67.7451 18.5146H67.6699V16.3018H63.9639V28ZM72.6543 28H76.457V16.3018H72.6543V28ZM74.5342 14.9697C75.0605 14.9697 75.501 14.7979 75.8662 14.4326C76.2314 14.0674 76.4141 13.6377 76.4141 13.1328C76.4141 12.6279 76.2314 12.1982 75.8662 11.833C75.501 11.4678 75.0605 11.2852 74.5342 11.2852C74.0078 11.2852 73.5674 11.4678 73.2021 11.833C72.8369 12.1982 72.665 12.6279 72.665 13.1328C72.665 13.6377 72.8369 14.0674 73.2021 14.4326C73.5674 14.7979 74.0078 14.9697 74.5342 14.9697ZM89.5625 16.3018H85.5771L83.5791 24.8096H83.5039L81.4629 16.3018H77.3701L81.291 28H85.6846L89.5625 16.3018ZM93.6445 28.1719C94.3428 28.1719 95.0195 28.0215 95.6641 27.6992C96.3086 27.3877 96.792 26.9365 97.1143 26.335H97.1895V28H100.896V19.9756C100.896 19.2021 100.67 18.5146 100.24 17.9131C99.8105 17.3223 99.1982 16.8604 98.4248 16.5273C97.6406 16.1943 96.7275 16.0225 95.6963 16.0225C94.0635 16.0225 92.7637 16.3877 91.8076 17.1182C90.8408 17.8486 90.3359 18.8047 90.2822 19.9971H93.709C93.7627 19.6426 93.9453 19.3418 94.2568 19.1055C94.5684 18.8691 94.9873 18.7402 95.5029 18.7402C95.9971 18.7402 96.4053 18.8691 96.7061 19.1162C97.0068 19.374 97.168 19.7285 97.168 20.1904V20.8564L94.4287 21.0176C92.9141 21.1143 91.7539 21.4688 90.9375 22.0703C90.1211 22.6719 89.7129 23.5205 89.7129 24.6162C89.7129 25.3252 89.8848 25.9375 90.2393 26.4746C90.5938 27.0117 91.0664 27.4307 91.668 27.7314C92.2588 28.0322 92.9141 28.1719 93.6445 28.1719ZM94.998 25.5508C94.5469 25.5508 94.1816 25.4541 93.9023 25.2393C93.623 25.0244 93.4834 24.7344 93.4834 24.3584C93.4834 24.0146 93.6123 23.7354 93.8809 23.5205C94.1494 23.3057 94.5361 23.1768 95.041 23.1338L97.168 22.9941V23.7998C97.168 24.3262 96.9424 24.7451 96.5127 25.0674C96.083 25.3896 95.5781 25.5508 94.998 25.5508ZM103.678 13.6807V16.3018H102.088V19.1055H103.678V24.7881C103.678 25.9375 104 26.7646 104.655 27.2695C105.311 27.7744 106.396 28.0215 107.921 28.0215C108.286 28.0215 108.608 28.0107 108.888 27.9785C109.167 27.957 109.393 27.9248 109.586 27.8818V25.1748C109.371 25.2178 109.113 25.2285 108.834 25.2285C107.932 25.2285 107.491 24.8311 107.491 24.0146V19.1055H109.597V16.3018H107.491V13.6807H103.678ZM118.813 24.3047C118.674 24.7021 118.416 25.0137 118.051 25.2393C117.675 25.4756 117.234 25.583 116.729 25.583C116.042 25.583 115.483 25.3682 115.054 24.9277C114.624 24.4873 114.42 23.918 114.42 23.2197V22.9834H122.315V21.9092C122.315 20.7168 122.079 19.6855 121.606 18.8047C121.134 17.9238 120.457 17.2471 119.598 16.7529C118.738 16.2695 117.718 16.0225 116.547 16.0225C115.354 16.0225 114.323 16.2803 113.453 16.7852C112.572 17.3008 111.906 18.0098 111.434 18.9336C110.961 19.8574 110.725 20.9531 110.725 22.21C110.725 24.1006 111.251 25.5938 112.304 26.668C113.356 27.7422 114.807 28.2793 116.676 28.2793C118.201 28.2793 119.469 27.9248 120.479 27.2051C121.478 26.4854 122.068 25.5186 122.251 24.3047H118.813ZM116.611 18.7295C117.213 18.7295 117.707 18.9229 118.094 19.3096C118.48 19.6963 118.685 20.1904 118.728 20.8135H114.474C114.517 20.2119 114.731 19.707 115.129 19.3203C115.526 18.9336 116.021 18.7295 116.611 18.7295ZM131.683 28L136.624 12.499H132.306L129.33 24.1436H129.244L126.258 12.499H121.778L126.72 28H131.683ZM141.974 28.2793C143.821 28.2793 145.271 27.7529 146.346 26.6787C147.42 25.6152 147.957 24.1006 147.957 22.1455C147.957 20.8672 147.71 19.7715 147.216 18.8584C146.722 17.9453 146.034 17.2471 145.143 16.7529C144.24 16.2695 143.188 16.0225 141.974 16.0225C140.76 16.0225 139.707 16.2695 138.805 16.7637C137.902 17.2578 137.215 17.9561 136.721 18.8691C136.227 19.7822 135.99 20.8779 135.99 22.1455C135.99 24.1006 136.527 25.6045 137.602 26.6787C138.676 27.7529 140.126 28.2793 141.974 28.2793ZM141.974 25.4863C141.308 25.4863 140.792 25.207 140.416 24.627C140.04 24.0469 139.857 23.2305 139.857 22.1562C139.857 21.1035 140.04 20.2871 140.427 19.6963C140.813 19.1162 141.329 18.8154 141.974 18.8154C142.618 18.8154 143.134 19.1162 143.521 19.6963C143.907 20.2871 144.101 21.1035 144.101 22.1562C144.101 23.2305 143.907 24.0469 143.521 24.627C143.134 25.207 142.618 25.4863 141.974 25.4863ZM149.461 28H153.264V16.3018H149.461V28ZM151.341 14.9697C151.867 14.9697 152.308 14.7979 152.673 14.4326C153.038 14.0674 153.221 13.6377 153.221 13.1328C153.221 12.6279 153.038 12.1982 152.673 11.833C152.308 11.4678 151.867 11.2852 151.341 11.2852C150.814 11.2852 150.374 11.4678 150.009 11.833C149.644 12.1982 149.472 12.6279 149.472 13.1328C149.472 13.6377 149.644 14.0674 150.009 14.4326C150.374 14.7979 150.814 14.9697 151.341 14.9697ZM159.43 28.1719C160.289 28.1719 161.041 27.9678 161.686 27.5488C162.319 27.1406 162.76 26.6143 162.996 25.9912H163.071V28H166.853V12.499H163.05V18.3643H162.975C162.717 17.7197 162.276 17.1826 161.664 16.7637C161.052 16.3447 160.321 16.1299 159.473 16.1299C158.012 16.1299 156.862 16.667 156.024 17.7305C155.187 18.7939 154.768 20.2549 154.768 22.124C154.768 24.0146 155.176 25.4971 156.003 26.5713C156.83 27.6455 157.969 28.1719 159.43 28.1719ZM160.858 19.1055C161.535 19.1055 162.072 19.3848 162.47 19.9326C162.856 20.4805 163.061 21.2217 163.061 22.1562C163.061 23.1123 162.856 23.8535 162.47 24.3906C162.083 24.9277 161.546 25.1963 160.858 25.1963C160.171 25.1963 159.634 24.9277 159.247 24.3906C158.86 23.8535 158.667 23.1016 158.667 22.1562C158.667 21.2217 158.86 20.4805 159.247 19.9326C159.634 19.3848 160.171 19.1055 160.858 19.1055Z" fill="#0052FF"/>
</svg>
